<svg xmlns="http://www.w3.org/2000/svg" width="60" height="44" viewBox="0 0 60 44">
  <path d="M891.3,737.54a5.071,5.071,0,0,0,1.83,1.136l9.242,2.884a6.1,6.1,0,0,0,1.653.224,3.871,3.871,0,0,0,.452-0.023l6.709-.752a2.147,2.147,0,0,0,1.693-1.432l4.76-15.876a2.21,2.21,0,0,0-.619-2.153l-5.148-4.454a6.112,6.112,0,0,0-1.855-1.034l-9.242-2.885a4.727,4.727,0,0,0-1.337-.175,4.051,4.051,0,0,0-.8.071l-12.178,2.54a2.328,2.328,0,0,0-1.632,1.514l-2.75,9.172a2.393,2.393,0,0,0,.523,2.187Zm-8.222-10.93,2.75-9.172a1.316,1.316,0,0,1,.84-0.779l1.226-.255-2.921,9.753a0.537,0.537,0,0,0,.348.668,0.512,0.512,0,0,0,.153.023,0.527,0.527,0,0,0,.5-0.379l3.087-10.309,1.745-.364-1.622,5.456a0.53,0.53,0,0,0,.5.691,0.527,0.527,0,0,0,.5-0.38l1.786-6.011,6.869-1.433a3.1,3.1,0,0,1,.593-0.05,3.816,3.816,0,0,1,1.03.129l9.242,2.885a3.484,3.484,0,0,1,.418.167l-3.923,13.086a0.537,0.537,0,0,0,.348.668,0.546,0.546,0,0,0,.153.023,0.525,0.525,0,0,0,.5-0.379l3.852-12.846c0.049,0.037.1,0.073,0.135,0.109l5.148,4.453a1.133,1.133,0,0,1,.295,1.024l-4.76,15.876a1.1,1.1,0,0,1-.806.682l-6.708.752c-0.05.006-.1,0.01-0.163,0.013l1.865-6.253a0.536,0.536,0,0,0-.349-0.667,0.522,0.522,0,0,0-.654.356l-1.936,6.491a3.587,3.587,0,0,1-.447-0.1l-9.242-2.885a2.766,2.766,0,0,1-.417-0.177l6.075-20.256a0.537,0.537,0,0,0-.348-0.668,0.524,0.524,0,0,0-.655.355l-5.982,19.947-0.061-.062-8.7-9.056A1.332,1.332,0,0,1,883.081,726.61Zm12.573,20.649a3.1,3.1,0,1,0,3.037,3.1A3.071,3.071,0,0,0,895.654,747.259Zm0,5.127a2.029,2.029,0,1,1,1.988-2.029A2.011,2.011,0,0,1,895.654,752.386Zm33.162-5.127a3.1,3.1,0,1,0,3.036,3.1A3.071,3.071,0,0,0,928.816,747.259Zm0,5.127a2.029,2.029,0,1,1,1.988-2.029A2.011,2.011,0,0,1,928.816,752.386Zm9.926-17.007v-4.022a0.537,0.537,0,0,0-.154-0.378l-6.332-6.461a0.521,0.521,0,0,0-.371-0.157h-7.426a1.6,1.6,0,0,0-1.579,1.612v9.406a1.6,1.6,0,0,0,1.579,1.612h12.7A1.6,1.6,0,0,0,938.742,735.379Zm-14.814,0v-9.406a0.537,0.537,0,0,1,.531-0.542h7.209l6.025,6.148v3.8a0.537,0.537,0,0,1-.531.542h-12.7A0.537,0.537,0,0,1,923.928,735.379ZM926.5,738.2H924.15a0.535,0.535,0,0,0,0,1.069H926.5A0.535,0.535,0,0,0,926.5,738.2Zm15.345-8.324-8.5-8.677a0.515,0.515,0,0,0-.37-0.157H921.214a1.964,1.964,0,0,0-1.941,1.981V742.21h-35.4a1.549,1.549,0,0,0-1.532,1.563v0.669a1.55,1.55,0,0,0,1.532,1.563h6.866a6.692,6.692,0,0,0-1.6,4.352,6.511,6.511,0,1,0,13.02,0,6.687,6.687,0,0,0-1.6-4.352H923.9a6.687,6.687,0,0,0-1.6,4.352,6.512,6.512,0,1,0,13.021,0,6.692,6.692,0,0,0-1.6-4.352h6.33A1.963,1.963,0,0,0,942,744.024V730.249A0.537,0.537,0,0,0,941.846,729.871ZM895.654,755.93a5.574,5.574,0,1,1,5.462-5.573A5.524,5.524,0,0,1,895.654,755.93Zm33.162,0a5.574,5.574,0,1,1,5.461-5.573A5.524,5.524,0,0,1,928.816,755.93Zm11.242-11H932.57a6.383,6.383,0,0,0-7.509,0H899.409a6.383,6.383,0,0,0-7.509,0h-8.024a0.489,0.489,0,0,1-.483-0.493v-0.669a0.489,0.489,0,0,1,.483-0.493H919.8a0.529,0.529,0,0,0,.524-0.535V723.018a0.9,0.9,0,0,1,.893-0.912h11.54l8.2,8.365V742.53h-3.765a0.535,0.535,0,0,0,0,1.07h3.765v0.424A0.9,0.9,0,0,1,940.058,744.935Z" transform="translate(-882 -713)"/>
</svg>
