<svg xmlns="http://www.w3.org/2000/svg" width="56" height="42" viewBox="0 0 56 42">
  <path d="M503.983,743.708H474.56a4.582,4.582,0,0,0,0,9.163h29.423A4.582,4.582,0,0,0,503.983,743.708Zm0,8.175H474.56a3.594,3.594,0,0,1,0-7.186h29.423A3.594,3.594,0,0,1,503.983,751.883Zm-0.016-10.3H474.605A6.666,6.666,0,0,0,468,748.29a0.532,0.532,0,0,0,.014.12A6.658,6.658,0,0,0,474.605,755h29.362A6.711,6.711,0,0,0,503.967,741.58Zm0,12.431H474.605a5.678,5.678,0,0,1-5.621-5.721,0.5,0.5,0,0,0-.012-0.111,5.683,5.683,0,0,1,5.633-5.61h29.362A5.722,5.722,0,0,1,503.967,754.011Zm-29.224-8.5a2.782,2.782,0,1,0,2.734,2.782A2.761,2.761,0,0,0,474.743,745.508Zm0,4.576a1.794,1.794,0,1,1,1.763-1.794A1.781,1.781,0,0,1,474.743,750.084Zm9.673-4.576a2.782,2.782,0,1,0,2.734,2.782A2.761,2.761,0,0,0,484.416,745.508Zm0,4.576a1.794,1.794,0,1,1,1.763-1.794A1.78,1.78,0,0,1,484.416,750.084Zm9.673-4.576a2.782,2.782,0,1,0,2.733,2.782A2.761,2.761,0,0,0,494.089,745.508Zm0,4.576a1.794,1.794,0,1,1,1.762-1.794A1.78,1.78,0,0,1,494.089,750.084Zm9.673-4.576a2.782,2.782,0,1,0,2.733,2.782A2.761,2.761,0,0,0,503.762,745.508Zm0,4.576a1.794,1.794,0,1,1,1.762-1.794A1.78,1.78,0,0,1,503.762,750.084Zm18.863-12.511a4.449,4.449,0,0,0,.056-0.7A4.388,4.388,0,0,0,520.7,733.2l-3.623-17.856a0.088,0.088,0,0,0,0-.015c-0.017-.08-0.036-0.159-0.06-0.237a2.882,2.882,0,0,0-3.336-2.032l-15.643,3.294a3.314,3.314,0,0,0-2.64-1.524H480.821a2.3,2.3,0,0,0-2.275,2.316V720.6h-6.88a1.414,1.414,0,0,0-1.4,1.425v15.612c0,0.011,0,.023,0,0.034a2.746,2.746,0,0,0,2.711,2.576h30.266a2.74,2.74,0,0,0,2.712-2.761,2.8,2.8,0,0,0-.182-0.993l0-.008-4.543-11.916,7.96-3.319,5.438,13.526a4.411,4.411,0,0,0,1.809,6l-2.329,7.5a0.086,0.086,0,0,1-.108.058L512.974,748a0.479,0.479,0,0,0-.433.073,0.5,0.5,0,0,0-.2.4V750.2a0.494,0.494,0,0,0,.334.469,8.457,8.457,0,0,0,2.7.439A8.712,8.712,0,0,0,524,742.325,8.847,8.847,0,0,0,522.625,737.573Zm-43.107-20.429a1.316,1.316,0,0,1,1.3-1.327H495.4a2.328,2.328,0,0,1,1.984,1.382l6.736,17.668a2.675,2.675,0,0,0-.871-0.146H501.6l-5.772-15.141a2.449,2.449,0,0,0-2.148-1.5H483.538a1.748,1.748,0,0,0-1.73,1.761v0.75h-2.291v-3.451h0Zm3.261,3.485v-0.784a0.767,0.767,0,0,1,.759-0.773H493.68a1.481,1.481,0,0,1,1.243.866l4.569,11.986H486.666a0.495,0.495,0,0,0,0,.989h13.2l0.69,1.808H483.88v-12.7A1.42,1.42,0,0,0,482.779,720.629Zm20.465,18.624H472.978a1.764,1.764,0,0,1-1.741-1.639V736.8a0.467,0.467,0,0,0,.159.029h8a0.494,0.494,0,0,0,0-.988h-8a0.492,0.492,0,0,0-.159.029v-8.421h3.434a0.494,0.494,0,0,0,0-.988h-3.434v-2.113h7.851a0.494,0.494,0,0,0,0-.988h-7.851V722.02a0.434,0.434,0,0,1,.429-0.437H482.48a0.433,0.433,0,0,1,.429.437v13.2a0.489,0.489,0,0,0,.485.494h19.85A1.772,1.772,0,0,1,503.244,739.253Zm-4.8-21.978,15.422-3.249a1.916,1.916,0,0,1,2.214,1.352,1.961,1.961,0,0,1-1.108,2.385l-14.1,5.879Zm11.637,3.6,5.259-2.193a2.891,2.891,0,0,0,1.224-.962l3.037,14.971a4.2,4.2,0,0,0-1.219-.18,4.249,4.249,0,0,0-3.086,1.335Zm4.979,16.006a3.323,3.323,0,1,1,3.322,3.382A3.356,3.356,0,0,1,515.065,736.876Zm0.311,13.239a7.539,7.539,0,0,1-2.063-.287v-0.687l0.393,0.126a1.03,1.03,0,0,0,.806-0.071,1.063,1.063,0,0,0,.52-0.63l2.313-7.451a4.173,4.173,0,0,0,1.042.131,4.292,4.292,0,0,0,3.834-2.4,7.867,7.867,0,0,1,.808,3.483A7.732,7.732,0,0,1,515.376,750.115Zm4.944-13.239a1.933,1.933,0,1,0-1.933,1.967A1.952,1.952,0,0,0,520.32,736.876Zm-2.894,0a0.962,0.962,0,1,1,.961.979A0.971,0.971,0,0,1,517.426,736.876Z" transform="translate(-468 -713)"/>
</svg>
