<svg xmlns="http://www.w3.org/2000/svg" width="47" height="47">
  <path d="M1298.14,718.237a11,11,0,1,0,10.94,11A10.983,10.983,0,0,0,1298.14,718.237Zm0,21.175a10.177,10.177,0,1,1,10.12-10.177A10.169,10.169,0,0,1,1298.14,739.412Zm0-18.494a0.411,0.411,0,0,0,0-.821h0a9.111,9.111,0,0,0-9.09,9.139,0.405,0.405,0,1,0,.81,0A8.307,8.307,0,0,1,1298.14,720.918Zm0,1.752a6.565,6.565,0,1,0,6.53,6.565A6.555,6.555,0,0,0,1298.14,722.67Zm0,12.309a5.744,5.744,0,1,1,5.71-5.744A5.741,5.741,0,0,1,1298.14,734.979Zm15.4,3.462-1.45-1.466a15.712,15.712,0,0,0,1.35-3.3h2.07a0.767,0.767,0,0,0,.76-0.774v-7.34a0.768,0.768,0,0,0-.76-0.774h-2.07a15.712,15.712,0,0,0-1.35-3.3l1.45-1.466a0.765,0.765,0,0,0,0-1.094l-5.16-5.189a0.754,0.754,0,0,0-.54-0.227h0a0.776,0.776,0,0,0-.55.226l-1.45,1.465a15.9,15.9,0,0,0-3.28-1.366v-2.072a0.775,0.775,0,0,0-.77-0.772h-7.3a0.768,0.768,0,0,0-.77.772v2.073a15.788,15.788,0,0,0-3.28,1.366l-1.46-1.466a0.753,0.753,0,0,0-.54-0.226h0a0.777,0.777,0,0,0-.55.227l-5.16,5.189a0.79,0.79,0,0,0,0,1.094l1.46,1.466a15.746,15.746,0,0,0-1.36,3.3h-2.06a0.77,0.77,0,0,0-.77.775v7.339a0.769,0.769,0,0,0,.77.774h2.06a15.724,15.724,0,0,0,1.36,3.3l-1.46,1.466a0.79,0.79,0,0,0,0,1.094l5.16,5.19a0.78,0.78,0,0,0,.55.226h0a0.756,0.756,0,0,0,.54-0.225l1.46-1.466a15.9,15.9,0,0,0,3.28,1.366V746.7a0.769,0.769,0,0,0,.77.773h7.3a0.775,0.775,0,0,0,.77-0.773v-2.072a15.9,15.9,0,0,0,3.28-1.366l1.45,1.466a0.775,0.775,0,0,0,.55.225,0.757,0.757,0,0,0,.54-0.226l5.16-5.19A0.777,0.777,0,0,0,1313.54,738.441Zm-5.7,5.67-1.65-1.652a0.4,0.4,0,0,0-.49-0.065,14.993,14.993,0,0,1-3.66,1.523s0,0-.01,0a0.409,0.409,0,0,0-.29.435v2.295h-7.21v-0.895h3.42a0.411,0.411,0,0,0,0-.821h-3.42v-0.586a0.4,0.4,0,0,0-.3-0.431,14.8,14.8,0,0,1-3.65-1.521,0.047,0.047,0,0,0-.01,0,0.186,0.186,0,0,0-.02-0.01,0.412,0.412,0,0,0-.5.105l-1.61,1.625-5.1-5.124,1.62-1.627a0.4,0.4,0,0,0,.09-0.513V736.84a15.687,15.687,0,0,1-1.52-3.679,0.4,0.4,0,0,0-.42-0.3h-2.29v-7.246h2.32a0.4,0.4,0,0,0,.39-0.3,15.673,15.673,0,0,1,1.52-3.677,0.4,0.4,0,0,0-.07-0.5l-1.64-1.652,5.1-5.124,1.64,1.652a0.4,0.4,0,0,0,.49.066,15.035,15.035,0,0,1,3.66-1.524,0.407,0.407,0,0,0,.3-0.429v-2.3h7.21v0.609h-3.79a0.41,0.41,0,0,0,0,.82h3.79v0.878a0.412,0.412,0,0,0,.29.421c0.01,0,.01,0,0.02.006a14.837,14.837,0,0,1,3.65,1.522,0.4,0.4,0,0,0,.49-0.065l1.65-1.653,5.09,5.124-1.64,1.652a0.419,0.419,0,0,0-.07.5,14.883,14.883,0,0,1,1.52,3.677,0.41,0.41,0,0,0,.39.3h2.33v7.246h-2.29a0.411,0.411,0,0,0-.43.3,14.874,14.874,0,0,1-1.52,3.678,0.419,0.419,0,0,0,.07.5l1.64,1.653Zm-9.7-27.891a13.015,13.015,0,1,0,12.94,13.016A13,13,0,0,0,1298.14,716.22Zm0,25.209a12.194,12.194,0,1,1,12.13-12.194A12.175,12.175,0,0,1,1298.14,741.429Zm28.49,8.524-0.76-.3a7.453,7.453,0,0,0-.02-1.417l0.75-.328a0.585,0.585,0,0,0,.3-0.767l-1.38-3.2a0.576,0.576,0,0,0-.76-0.3l-0.75.328a8.466,8.466,0,0,0-1.01-.986l0.3-.765a0.59,0.59,0,0,0-.33-0.756l-3.22-1.28a0.574,0.574,0,0,0-.75.327l-0.31.766a7.739,7.739,0,0,0-1.41.023l-0.32-.755a0.578,0.578,0,0,0-.76-0.3l-3.18,1.385a0.6,0.6,0,0,0-.31.32,0.537,0.537,0,0,0,.01.447l0.32,0.755a8.6,8.6,0,0,0-.98,1.019l-0.76-.3a0.56,0.56,0,0,0-.44.007,0.568,0.568,0,0,0-.31.321l-1.27,3.24a0.577,0.577,0,0,0,.32.756l0.76,0.3a8.4,8.4,0,0,0,.03,1.418l-0.76.327a0.594,0.594,0,0,0-.3.767l1.38,3.2a0.58,0.58,0,0,0,.76.3l0.76-.328a7.138,7.138,0,0,0,1.01.986l-0.3.765a0.537,0.537,0,0,0,.01.447,0.571,0.571,0,0,0,.31.31l3.23,1.279a0.555,0.555,0,0,0,.44-0.007,0.6,0.6,0,0,0,.31-0.32l0.3-.766a7.637,7.637,0,0,0,1.41-.023l0.33,0.755a0.572,0.572,0,0,0,.76.3l3.18-1.386a0.585,0.585,0,0,0,.3-0.767h0l-0.33-.755a7.2,7.2,0,0,0,.98-1.019l0.76,0.3a0.589,0.589,0,0,0,.45-0.008,0.6,0.6,0,0,0,.31-0.32l1.27-3.24A0.582,0.582,0,0,0,1326.63,749.953Zm-1.62,3.473-0.82-.328a0.41,0.41,0,0,0-.48.137,6.829,6.829,0,0,1-1.27,1.317,0.424,0.424,0,0,0-.12.485l0.35,0.82-2.74,1.2-0.34-.8a0.414,0.414,0,0,0-.45-0.266,6.842,6.842,0,0,1-1.82.03,0.417,0.417,0,0,0-.43.257l-0.32.831L1313.78,756l0.33-.831a0.408,0.408,0,0,0-.14-0.481,6.962,6.962,0,0,1-1.31-1.274V753.41a0.408,0.408,0,0,0-.5-0.1l-0.79.344-1.19-2.759,0.79-.346a0.42,0.42,0,0,0,.27-0.418c0-.012-0.01-0.024-0.01-0.037a6.963,6.963,0,0,1-.03-1.824,0.4,0.4,0,0,0-.27-0.438l-0.81-.319,1.1-2.8,0.81,0.32a0.4,0.4,0,0,0,.47-0.1l0.03-.034a7.078,7.078,0,0,1,1.26-1.31c0.01-.01.03-0.021,0.04-0.033a0.4,0.4,0,0,0,.07-0.474l-0.34-.8,2.74-1.2,0.36,0.82a0.4,0.4,0,0,0,.43.243,6.856,6.856,0,0,1,1.82-.03,0.41,0.41,0,0,0,.43-0.257l0.33-.831,2.78,1.105-0.33.831a0.423,0.423,0,0,0,.14.481,6.993,6.993,0,0,1,1.31,1.274,0.407,0.407,0,0,0,.5.114l0.8-.349,1.19,2.76-0.79.345a0.4,0.4,0,0,0-.27.447,7.023,7.023,0,0,1,.03,1.832,0.405,0.405,0,0,0,.26.429l0.82,0.329Zm-4.76-9.774a5.781,5.781,0,0,0-7.52,3.277,5.821,5.821,0,0,0,5.4,7.966,5.725,5.725,0,0,0,2.29-.481,5.845,5.845,0,0,0,3.01-7.662A5.737,5.737,0,0,0,1320.25,743.652Zm-0.15,10.009a5,5,0,0,1-3.96-9.183,4.907,4.907,0,0,1,1.97-.413A5.009,5.009,0,0,1,1320.1,753.661Zm-3.48-8.055a0.416,0.416,0,0,0-.21.54,0.409,0.409,0,0,0,.54.213,2.931,2.931,0,0,1,3.86,1.535,0.417,0.417,0,0,0,.38.248,0.386,0.386,0,0,0,.16-0.035,0.406,0.406,0,0,0,.21-0.539A3.752,3.752,0,0,0,1316.62,745.606Zm2.67,6.174a2.94,2.94,0,0,1-3.87-1.535,0.409,0.409,0,0,0-.54-0.213,0.416,0.416,0,0,0-.21.54,3.762,3.762,0,0,0,2.07,2.009,3.7,3.7,0,0,0,2.87-.048,0.408,0.408,0,0,0,.21-0.54A0.4,0.4,0,0,0,1319.29,751.78Z" transform="translate(-1280 -711)"/>
</svg>
